:version 1.10
:name ASF
:units
  mass 1
  length 1
  angle deg
:documentation
  ASF file generated by Kaydara
:root
  axis xyz
  order  tx ty tz rx ry rz
  position 0 0 0
  orientation 0 0 0
:bonedata
  begin
    id 1
    name RightUpLegDummy
    direction -0.718183 -0.695806 0.00816078
    length 4.904
    axis 0 0 0 xyz
  end
  begin
    id 2
    name RightUpLeg
    direction -0.00334265 -0.999142 0.0412837
    length 17.4976
    axis -0.59612 0.00940841 -0.192072 xyz
    dof rx ry rz
  end
  begin
    id 3
    name RightLeg
    direction 0.000365068 -0.988824 -0.149089
    length 16.5821
    axis 6.58657 0.0604092 -0.318554 xyz
    dof rx ry rz
  end
  begin
    id 4
    name RightFoot
    direction 0.00079069 -0.460991 0.887405
    length 3.77069
    axis 0.000105557 -0.120464 -0.188919 xyz
    dof rx ry rz
  end
  begin
    id 5
    name RightToes
    direction 0.00124768 -0.014065 0.9999
    length 3.85082
    axis 0.00053932 0.542178 -0.142707 xyz
    dof rx ry rz
  end
  begin
    id 6
    name SpineDummy
    direction 8.3039e-015 1 4.58682e-016
    length 4.6813
    axis 0 0 0 xyz
  end
  begin
    id 7
    name Spine
    direction 4.12799e-006 0.999988 0.00494944
    length 10.1015
    axis -0.00149944 0.000129667 -0.000235877 xyz
    dof rx ry rz
  end
  begin
    id 8
    name Spine1
    direction 0 0 0
    length 0
    axis -0.00160567 0.000129431 -0.000308381 xyz
    dof rx ry rz
  end
  begin
    id 9
    name HEadDummy
    direction 5.38513e-006 0.999999 0.00127044
    length 3.43865
    axis -0.00160567 0.000129431 -0.000308381 xyz
  end
  begin
    id 10
    name HEad
    direction -0.0226495 0.980942 0.192974
    length 5.12695
    axis -0.00160642 -0.114462 -0.000307946 xyz
    dof rx ry rz
  end
  begin
    id 11
    name LeftShoulder1Dummy
    direction 0.99889 -0.0402564 -0.0244456
    length 3.5433
    axis -0.00160567 0.000129431 -0.000308381 xyz
  end
  begin
    id 12
    name LeftShoulder1
    direction 0.999464 -0.00142945 0.0326977
    length 4.05031
    axis 0.393425 -0.0796525 -0.0507861 xyz
    dof rx ry rz
  end
  begin
    id 13
    name LeftArm
    direction 0.998564 -0.000899612 -0.053557
    length 10.3537
    axis -22.9476 0.126974 0.960871 xyz
    dof rx ry rz
  end
  begin
    id 14
    name LeftForeArm
    direction 0.998903 0.00865904 0.0460121
    length 8.70632
    axis -9.91856 -0.0656997 -0.178106 xyz
    dof rx ry rz
  end
  begin
    id 15
    name LeftHand
    direction 0.992938 -0.0411687 0.11126
    length 5.32135
    axis -0.00981066 -0.00340928 0.18486 xyz
    dof rx ry rz
  end
  begin
    id 16
    name RightShoulderDummy
    direction -0.998891 -0.0402456 -0.0244411
    length 3.5433
    axis -0.00160567 0.000129431 -0.000308381 xyz
  end
  begin
    id 17
    name RightShoulder
    direction -0.999353 -0.00388479 0.0357579
    length 4.05031
    axis 1.48787 0.256014 0.157284 xyz
    dof rx ry rz
  end
  begin
    id 18
    name RightArm
    direction -0.998583 -0.000660455 -0.0532032
    length 10.3947
    axis -22.4211 -0.109147 -0.943573 xyz
    dof rx ry rz
  end
  begin
    id 19
    name RightForeArm
    direction -0.998898 0.00868588 0.0461311
    length 8.68355
    axis -9.92343 0.0658342 0.178556 xyz
    dof rx ry rz
  end
  begin
    id 20
    name RightHand
    direction -0.992843 -0.0414545 0.112004
    length 5.28593
    axis -0.00982288 0.00332907 -0.185539 xyz
    dof rx ry rz
  end
  begin
    id 21
    name LeftUpLegDummy
    direction 0.718183 -0.695806 0.00816078
    length 4.904
    axis 0 0 0 xyz
  end
  begin
    id 22
    name LeftUpLeg
    direction 0.00445374 -0.999139 0.0412407
    length 17.4976
    axis -0.593655 -0.0138231 0.255969 xyz
    dof rx ry rz
  end
  begin
    id 23
    name LeftLeg
    direction -0.00154847 -0.988829 -0.149046
    length 16.5821
    axis 6.5841 -0.0555156 0.250722 xyz
    dof rx ry rz
  end
  begin
    id 24
    name LeftFoot
    direction -0.00417678 -0.460985 0.887398
    length 3.77069
    axis 5.53694e-005 4.88088e-005 -0.000136194 xyz
    dof rx ry rz
  end
  begin
    id 25
    name LeftToes
    direction 0.00818061 -0.00485256 0.999955
    length 3.85048
    axis 6.41179e-005 4.88477e-005 -0.000136145 xyz
    dof rx ry rz
  end
:hierarchy
  begin
    root RightUpLegDummy SpineDummy LeftUpLegDummy
    RightUpLegDummy RightUpLeg
    RightUpLeg RightLeg
    RightLeg RightFoot
    RightFoot RightToes
    SpineDummy Spine
    Spine Spine1
    Spine1 HEadDummy LeftShoulder1Dummy RightShoulderDummy
    HEadDummy HEad
    LeftShoulder1Dummy LeftShoulder1
    LeftShoulder1 LeftArm
    LeftArm LeftForeArm
    LeftForeArm LeftHand
    RightShoulderDummy RightShoulder
    RightShoulder RightArm
    RightArm RightForeArm
    RightForeArm RightHand
    LeftUpLegDummy LeftUpLeg
    LeftUpLeg LeftLeg
    LeftLeg LeftFoot
    LeftFoot LeftToes
  end

:SAMPLES-PER-SECOND 30
:FULLY-SPECIFIED
:DEGREES
179
root  58.6619 40.2377 2.273 175.72 88.2837 175.953
RightUpLeg  1.16363 1.30313 1.62913
RightLeg  1.39313 8.06601 -0.490012
RightFoot  -1.21115 0.396087 -3.79652
RightToes  -6.40286e-010 -1.59028e-015 9.93923e-017
Spine  -15.4455 -1.33472 0.81021
Spine1  16.0968 -0.793487 -2.21072
HEad  -5.10937 0.847949 0.823021
LeftShoulder1  9.93923e-017 0 1.22299e-017
LeftArm  31.048 33.1642 -81.122
LeftForeArm  -50.2662 -24.6647 13.7167
LeftHand  0.853115 5.70614 -4.11004
RightShoulder  1.98785e-016 -4.96962e-017 1.55301e-017
RightArm  17.2912 -46.3792 87.3438
RightForeArm  -37.4393 18.0519 -4.78248
RightHand  1.03964 -9.83129 -4.39486
LeftUpLeg  -2.35313 -0.206846 -0.757461
LeftLeg  -1.45151 -10.6645 -0.518462
LeftFoot  4.1631 -0.220167 1.50176
LeftToes  8.73142e-011 -6.07963e-011 6.03181e-012
180
root  58.8859 40.245 2.16472 171.539 88.8331 171.459
RightUpLeg  1.1895 1.36132 1.4889
RightLeg  1.23988 8.54628 -0.545115
RightFoot  -1.36823 0.364754 -3.54256
RightToes  -6.40286e-010 -1.59028e-015 9.93923e-017
Spine  -15.7587 -1.28847 0.886976
Spine1  16.1462 -0.773019 -2.25432
HEad  -5.03765 1.33578 0.531689
LeftShoulder1  9.93923e-017 0 1.22299e-017
LeftArm  31.0209 31.9092 -81.2903
LeftForeArm  -51.8799 -25.3306 15.5742
LeftHand  0.849251 5.74802 -3.44193
RightShoulder  1.98785e-016 -4.96962e-017 1.55301e-017
RightArm  15.8883 -47.1567 87.2186
RightForeArm  -35.4938 17.6051 -3.74146
RightHand  1.02614 -9.78201 -4.12393
LeftUpLeg  -2.19379 -0.0945127 -0.799991
LeftLeg  -1.52547 -10.2998 -0.67728
LeftFoot  3.68633 -0.229495 1.58879
LeftToes  8.73142e-011 -6.07963e-011 6.03181e-012
181
root  59.0843 40.2422 2.07255 179.268 89.6178 178.771
RightUpLeg  0.962695 1.42243 1.28432
RightLeg  1.24007 9.2376 -0.627586
RightFoot  -1.66159 0.333755 -3.32522
RightToes  -6.40286e-010 -1.59028e-015 9.93923e-017
Spine  -16.1066 -1.28708 0.576851
Spine1  16.1143 -0.859987 -1.88674
HEad  -4.82092 2.09924 0.180098
LeftShoulder1  9.93923e-017 0 1.22299e-017
LeftArm  30.1122 31.243 -81.2723
LeftForeArm  -52.142 -25.9443 16.6794
LeftHand  0.842071 5.75124 -2.82191
RightShoulder  1.98785e-016 -4.96962e-017 1.55301e-017
RightArm  15.7714 -47.7351 87.0284
RightForeArm  -35.2339 17.553 -3.6531
RightHand  1.01902 -9.74863 -3.96546
LeftUpLeg  -2.18021 -0.0337706 -0.91032
LeftLeg  -1.56742 -9.61057 -0.855968
LeftFoot  3.36525 -0.227078 1.56586
LeftToes  8.73142e-011 -6.07963e-011 6.03181e-012
182
root  59.2517 40.232 1.99361 53.1223 89.5561 52.2589
RightUpLeg  0.760477 1.47021 1.10098
RightLeg  1.21651 9.9103 -0.711251
RightFoot  -1.95084 0.312837 -3.19833
RightToes  -6.40286e-010 -1.59028e-015 9.93923e-017
Spine  -16.3829 -1.38785 0.176115
Spine1  16.1598 -1.03868 -1.47768
HEad  -4.86932 2.92352 -0.10619
LeftShoulder1  9.93923e-017 0 1.22299e-017
LeftArm  28.9041 31.0121 -80.9885
LeftForeArm  -51.563 -26.6337 17.3065
LeftHand  0.841439 5.78422 -2.45044
RightShoulder  1.98785e-016 -4.96962e-017 1.55301e-017
RightArm  16.9741 -48.037 86.9746
RightForeArm  -36.7823 17.9262 -4.5146
RightHand  1.01715 -9.7744 -4.0006
LeftUpLeg  -2.25218 -0.122789 -1.08404
LeftLeg  -1.45988 -8.78963 -0.877779
LeftFoot  3.06264 -0.23708 1.6771
LeftToes  8.73142e-011 -6.07963e-011 6.03181e-012
183
root  59.3926 40.2265 1.92626 13.1404 88.9731 12.0352
RightUpLeg  0.722575 1.52257 0.980781
RightLeg  1.05429 10.5795 -0.770028
RightFoot  -2.08268 0.302454 -3.12932
RightToes  -6.40286e-010 -1.59028e-015 9.93923e-017
Spine  -16.4825 -1.48752 -0.0121675
Spine1  16.229 -1.16982 -1.3259
HEad  -5.18882 3.57359 -0.290949
LeftShoulder1  9.93923e-017 0 1.22299e-017
LeftArm  28.2898 31.0905 -80.5712
LeftForeArm  -50.9728 -27.1785 17.5264
LeftHand  0.846827 5.853 -2.2054
RightShoulder  1.98785e-016 -4.96962e-017 1.55301e-017
RightArm  18.1207 -48.1099 87.0876
RightForeArm  -38.5988 18.3723 -5.71729
RightHand  1.01922 -9.80526 -4.12717
LeftUpLeg  -2.26624 -0.231138 -1.20287
LeftLeg  -1.32492 -8.05371 -0.835659
LeftFoot  2.6878 -0.246884 1.80041
LeftToes  8.73142e-011 -6.07963e-011 6.03181e-012
184
root  59.5157 40.2227 1.86786 7.73334 88.2694 6.45282
RightUpLeg  0.705706 1.56379 0.896758
RightLeg  0.911981 11.2953 -0.793887
RightFoot  -2.14849 0.294216 -3.06098
RightToes  -6.40286e-010 -1.59028e-015 9.93923e-017
Spine  -16.428 -1.50905 -0.0222716
Spine1  16.1866 -1.2121 -1.29769
HEad  -5.49925 3.96046 -0.384927
LeftShoulder1  9.93923e-017 0 1.22299e-017
LeftArm  29.1693 31.5057 -80.2998
LeftForeArm  -51.3295 -27.1266 17.5137
LeftHand  0.845263 5.85576 -2.03877
RightShoulder  1.98785e-016 -4.96962e-017 1.55301e-017
RightArm  18.4462 -48.0124 87.2427
RightForeArm  -39.5515 18.6547 -6.70609
RightHand  1.02469 -9.78403 -4.26811
LeftUpLeg  -2.2429 -0.241838 -1.21845
LeftLeg  -1.18509 -7.38288 -0.872642
LeftFoot  2.31849 -0.239653 1.78169
LeftToes  8.73142e-011 -6.07963e-011 6.03181e-012
185
root  59.6246 40.2157 1.81786 4.56592 87.5889 3.12451
RightUpLeg  0.641987 1.58242 0.839877
RightLeg  0.856161 11.9214 -0.782985
RightFoot  -2.23163 0.284278 -2.97387
RightToes  -6.40286e-010 -1.59028e-015 9.93923e-017
Spine  -16.3837 -1.50129 -0.0132287
Spine1  16.1183 -1.23557 -1.24409
HEad  -5.63001 4.10445 -0.393459
LeftShoulder1  9.93923e-017 0 1.22299e-017
LeftArm  31.1146 32.1563 -80.2964
LeftForeArm  -52.297 -26.3203 16.9913
LeftHand  0.830356 5.73504 -2.03091
RightShoulder  1.98785e-016 -4.96962e-017 1.55301e-017
RightArm  18.8513 -47.7474 87.3899
RightForeArm  -40.4941 18.887 -7.6139
RightHand  1.03218 -9.7696 -4.4054
LeftUpLeg  -2.25475 -0.201965 -1.19094
LeftLeg  -0.995857 -6.74943 -0.925081
LeftFoot  2.02039 -0.227972 1.72416
LeftToes  8.73142e-011 -6.07963e-011 6.03181e-012
186
root  59.7219 40.209 1.7799 2.38031 87.0754 0.799438
RightUpLeg  0.623341 1.59328 0.825714
RightLeg  0.772864 12.377 -0.745571
RightFoot  -2.28433 0.274966 -2.89203
RightToes  -6.40286e-010 -1.59028e-015 9.93923e-017
Spine  -16.4759 -1.5077 -0.00747633
Spine1  16.1985 -1.25851 -1.23518
HEad  -5.61757 4.05251 -0.317558
LeftShoulder1  9.93923e-017 0 1.22299e-017
LeftArm  31.8684 32.8031 -80.4023
LeftForeArm  -51.6094 -25.0979 14.933
LeftHand  0.816924 5.60915 -2.18416
RightShoulder  1.98785e-016 -4.96962e-017 1.55301e-017
RightArm  20.285 -47.3513 87.5817
RightForeArm  -42.5439 19.2098 -8.80195
RightHand  1.04395 -9.83196 -4.52707
LeftUpLeg  -2.30906 -0.191815 -1.16815
LeftLeg  -0.759614 -6.24205 -0.874914
LeftFoot  1.73263 -0.224213 1.7227
LeftToes  8.73142e-011 -6.07963e-011 6.03181e-012
187
root  59.8102 40.2053 1.75672 0.964844 86.6958 -0.73175
RightUpLeg  0.662509 1.60289 0.817951
RightLeg  0.641733 12.7973 -0.699609
RightFoot  -2.30404 0.269496 -2.85176
RightToes  -6.40286e-010 -1.59028e-015 9.93923e-017
Spine  -16.6111 -1.49418 -0.0190678
Spine1  16.3338 -1.24319 -1.26788
HEad  -5.5408 3.90154 -0.189442
LeftShoulder1  9.93923e-017 0 1.22299e-017
LeftArm  29.1061 33.4565 -80.4024
LeftForeArm  -46.9754 -23.6716 10.7008
LeftHand  0.82116 5.61739 -2.4254
RightShoulder  1.98785e-016 -4.96962e-017 1.55301e-017
RightArm  22.0725 -46.9275 87.8082
RightForeArm  -44.8671 19.5206 -10.07
RightHand  1.05498 -9.89248 -4.62179
LeftUpLeg  -2.35634 -0.208285 -1.16102
LeftLeg  -0.557544 -5.8589 -0.763163
LeftFoot  1.43877 -0.218655 1.70708
LeftToes  8.73142e-011 -6.07963e-011 6.03181e-012
